<?xml version="1.0"?>
<svg xmlns="http://www.w3.org/2000/svg" viewBox="0 0 50 50">
    <path d="M 24.998047 2 C 21.696183 2 18.998047 4.6981361 18.998047 8 C 18.998047 11.301864 21.696183 14 24.998047 14 C 28.299911 14 30.998047 11.301864 30.998047 8 C 30.998047 4.6981361 28.299911 2 24.998047 2 z M 24.998047 4 C 27.219031 4 28.998047 5.7790164 28.998047 8 C 28.998047 10.220984 27.219031 12 24.998047 12 C 22.777063 12 20.998047 10.220984 20.998047 8 C 20.998047 5.7790164 22.777063 4 24.998047 4 z M 25.025391 15 C 20.62311 15 18.053312 16.168739 16.625 17.628906 C 15.196688 19.089074 14.998047 20.713501 14.998047 21.400391 L 14.998047 31.199219 C 14.998047 32.73445 16.263597 34 17.798828 34 L 18.998047 34 L 18.998047 45.332031 C 18.998047 46.793967 20.20408 48 21.666016 48 L 28.332031 48 C 29.793561 48 30.998047 46.793967 30.998047 45.332031 L 30.998047 34 L 32.199219 34 C 33.73445 34 34.998047 32.73445 34.998047 31.199219 L 34.998047 21.400391 C 34.998047 20.731329 34.818454 19.096525 33.402344 17.632812 C 31.986233 16.169101 29.428151 15 25.025391 15 z M 25.025391 17 C 29.08063 17 31.008454 18.0349 31.964844 19.023438 C 32.921233 20.011975 32.998047 21.078453 32.998047 21.400391 L 32.998047 31.199219 C 32.998047 31.645987 32.645987 32 32.199219 32 L 30.998047 32 L 30.998047 24 A 1.0001 1.0001 0 0 0 29.984375 22.986328 A 1.0001 1.0001 0 0 0 28.998047 24 L 28.998047 33 L 28.998047 45.332031 C 28.998047 45.706095 28.704502 46 28.332031 46 L 21.666016 46 C 21.291952 46 20.998047 45.706095 20.998047 45.332031 L 20.998047 33 L 20.998047 24 A 1.0001 1.0001 0 0 0 19.984375 22.986328 A 1.0001 1.0001 0 0 0 18.998047 24 L 18.998047 32 L 17.798828 32 C 17.35206 32 16.998047 31.645987 16.998047 31.199219 L 16.998047 21.400391 C 16.998047 21.09628 17.084247 20.019426 18.054688 19.027344 C 19.025126 18.035261 20.970672 17 25.025391 17 z M 13.353516 32.763672 C 6.9465156 36.114672 2.9008281 42.023453 1.0488281 47.689453 C 0.87782813 48.214453 1.1644531 48.777219 1.6894531 48.949219 C 1.7924531 48.983219 1.897 49 2 49 C 2.421 49 2.8131719 48.732547 2.9511719 48.310547 C 3.6331719 46.223547 4.6455156 44.101469 5.9785156 42.105469 C 6.2495156 41.707469 6.7695469 40.936031 7.1855469 40.457031 C 9.0705469 38.089031 11.478156 36.002234 14.410156 34.490234 C 13.945156 33.999234 13.579516 33.416672 13.353516 32.763672 z M 36.789062 32.841797 C 36.552062 33.490797 36.169359 34.064828 35.693359 34.548828 C 38.576359 36.056828 40.9505 38.118031 42.8125 40.457031 C 43.1235 40.791031 43.728484 41.686469 44.021484 42.105469 C 45.354484 44.101469 46.366828 46.223547 47.048828 48.310547 C 47.187828 48.732547 47.579 49 48 49 C 48.103 49 48.207547 48.983219 48.310547 48.949219 C 48.834547 48.777219 49.121219 48.214453 48.949219 47.689453 C 47.111219 42.066453 43.112062 36.206797 36.789062 32.841797 z M 32.941406 37 C 32.812344 37.007188 32.683047 37.039609 32.560547 37.099609 C 32.060547 37.349609 31.859609 37.949453 32.099609 38.439453 C 32.279609 38.799453 32.63 39 33 39 C 33.15 39 33.299453 38.970391 33.439453 38.900391 C 33.939453 38.650391 34.140391 38.050547 33.900391 37.560547 C 33.712891 37.185547 33.328594 36.978437 32.941406 37 z M 17.013672 37.105469 C 16.622266 37.079687 16.238281 37.285156 16.050781 37.660156 C 15.810781 38.150156 16.01 38.75 16.5 39 C 16.65 39.07 16.799219 39.099609 16.949219 39.099609 C 17.319219 39.099609 17.669844 38.900781 17.839844 38.550781 C 18.089844 38.050781 17.890391 37.450938 17.400391 37.210938 C 17.275391 37.148438 17.144141 37.114063 17.013672 37.105469 z M 34.302734 39.65625 C 34.172578 39.668281 34.042422 39.704531 33.919922 39.769531 C 33.439922 40.039531 33.259531 40.640859 33.519531 41.130859 C 33.699531 41.460859 34.050391 41.650391 34.400391 41.650391 C 34.560391 41.650391 34.720859 41.619297 34.880859 41.529297 C 35.360859 41.269297 35.539297 40.659687 35.279297 40.179688 C 35.084297 39.812188 34.693203 39.620156 34.302734 39.65625 z M 15.642578 39.755859 C 15.256328 39.719766 14.864922 39.911797 14.669922 40.279297 C 14.399922 40.759297 14.580312 41.370859 15.070312 41.630859 C 15.220313 41.710859 15.379063 41.75 15.539062 41.75 C 15.899062 41.75 16.239922 41.560469 16.419922 41.230469 C 16.689922 40.740469 16.509531 40.139141 16.019531 39.869141 C 15.899531 39.804141 15.771328 39.767891 15.642578 39.755859 z M 8.6855469 40.8125 C 8.4255469 40.8125 8.1654688 40.904844 7.9804688 41.089844 C 7.7904687 41.279844 7.6894531 41.540781 7.6894531 41.800781 C 7.6894531 42.060781 7.7904687 42.319766 7.9804688 42.509766 C 8.1704688 42.689766 8.4194531 42.800781 8.6894531 42.800781 C 8.9494531 42.800781 9.2103906 42.689766 9.4003906 42.509766 C 9.5803906 42.319766 9.6894531 42.060781 9.6894531 41.800781 C 9.6894531 41.540781 9.580625 41.279844 9.390625 41.089844 C 9.205625 40.904844 8.9455469 40.8125 8.6855469 40.8125 z M 41.310547 40.8125 C 41.050547 40.8125 40.789609 40.904844 40.599609 41.089844 C 40.419609 41.279844 40.310547 41.540781 40.310547 41.800781 C 40.310547 42.060781 40.419609 42.319766 40.599609 42.509766 C 40.789609 42.689766 41.050547 42.800781 41.310547 42.800781 C 41.570547 42.800781 41.829531 42.689766 42.019531 42.509766 C 42.209531 42.319766 42.310547 42.060781 42.310547 41.800781 C 42.310547 41.540781 42.209531 41.279844 42.019531 41.089844 C 41.829531 40.904844 41.570547 40.8125 41.310547 40.8125 z M 11.273438 41.759766 C 10.885313 41.808516 10.542188 42.082969 10.429688 42.480469 C 10.279687 43.010469 10.589141 43.560938 11.119141 43.710938 C 11.209141 43.740938 11.300625 43.75 11.390625 43.75 C 11.830625 43.75 12.229609 43.469297 12.349609 43.029297 C 12.509609 42.499297 12.199922 41.949062 11.669922 41.789062 C 11.537422 41.751562 11.402812 41.743516 11.273438 41.759766 z M 38.724609 41.759766 C 38.596016 41.743516 38.462578 41.751562 38.330078 41.789062 C 37.800078 41.949062 37.490625 42.499297 37.640625 43.029297 C 37.770625 43.469297 38.169609 43.759766 38.599609 43.759766 C 38.699609 43.759766 38.790859 43.740703 38.880859 43.720703 C 39.410859 43.560703 39.720312 43.010469 39.570312 42.480469 C 39.450313 42.082969 39.110391 41.808516 38.724609 41.759766 z M 13.992188 42.457031 C 13.609687 42.531562 13.289219 42.825469 13.199219 43.230469 C 13.089219 43.770469 13.430703 44.299922 13.970703 44.419922 C 14.040703 44.429922 14.109687 44.439453 14.179688 44.439453 C 14.639688 44.439453 15.060156 44.120391 15.160156 43.650391 C 15.270156 43.110391 14.930625 42.580703 14.390625 42.470703 L 14.390625 42.460938 C 14.255625 42.433437 14.119688 42.432187 13.992188 42.457031 z M 35.609375 42.460938 C 35.069375 42.580938 34.719844 43.110391 34.839844 43.650391 C 34.939844 44.120391 35.360312 44.439453 35.820312 44.439453 C 35.890312 44.439453 35.959297 44.429922 36.029297 44.419922 C 36.569297 44.299922 36.910781 43.770469 36.800781 43.230469 C 36.680781 42.690469 36.149375 42.350703 35.609375 42.470703 L 35.609375 42.460938 z M 17 43.001953 C 16.7375 43.001953 16.474063 43.094297 16.289062 43.279297 C 16.109063 43.469297 16 43.730234 16 43.990234 C 16 44.250234 16.109063 44.509453 16.289062 44.689453 C 16.479063 44.879453 16.73 44.990234 17 44.990234 C 17.27 44.990234 17.520937 44.879453 17.710938 44.689453 C 17.890937 44.509453 18 44.250234 18 43.990234 C 18 43.730234 17.890937 43.469297 17.710938 43.279297 C 17.525938 43.094297 17.2625 43.001953 17 43.001953 z M 33 43.001953 C 32.7375 43.001953 32.474063 43.094297 32.289062 43.279297 C 32.109062 43.469297 32 43.720234 32 43.990234 C 32 44.250234 32.109063 44.509453 32.289062 44.689453 C 32.479062 44.879453 32.73 44.990234 33 44.990234 C 33.27 44.990234 33.520938 44.879453 33.710938 44.689453 C 33.890938 44.509453 34 44.250234 34 43.990234 C 34 43.730234 33.890937 43.469297 33.710938 43.279297 C 33.525938 43.094297 33.2625 43.001953 33 43.001953 z M 37.048828 45.041016 C 36.919453 45.037734 36.787656 45.059375 36.660156 45.109375 C 36.150156 45.319375 35.889609 45.900156 36.099609 46.410156 C 36.249609 46.810156 36.629297 47.039062 37.029297 47.039062 C 37.149297 47.039062 37.280391 47.020703 37.400391 46.970703 C 37.910391 46.770703 38.160938 46.189922 37.960938 45.669922 C 37.803438 45.287422 37.436953 45.050859 37.048828 45.041016 z M 12.90625 45.152344 C 12.514375 45.162656 12.15 45.399062 12 45.789062 L 12 45.779297 C 11.8 46.299297 12.050547 46.880078 12.560547 47.080078 C 12.680547 47.130078 12.809687 47.150391 12.929688 47.150391 C 13.329687 47.150391 13.709375 46.909531 13.859375 46.519531 C 14.059375 45.999531 13.810781 45.420703 13.300781 45.220703 C 13.170781 45.170703 13.036875 45.148906 12.90625 45.152344 z M 38.115234 47.898438 C 37.986953 47.879687 37.853203 47.884922 37.720703 47.919922 C 37.180703 48.059922 36.86 48.610625 37 49.140625 C 37.12 49.590625 37.530703 49.890625 37.970703 49.890625 C 38.060703 49.890625 38.140469 49.879375 38.230469 49.859375 C 38.760469 49.709375 39.079453 49.170625 38.939453 48.640625 C 38.834453 48.235625 38.500078 47.954688 38.115234 47.898438 z M 11.851562 48.007812 C 11.465312 48.064062 11.134297 48.345 11.029297 48.75 C 10.889297 49.28 11.22 49.830703 11.75 49.970703 C 11.83 49.990703 11.92 50 12 50 C 12.45 50 12.850703 49.7 12.970703 49.25 C 13.100703 48.71 12.78 48.169297 12.25 48.029297 C 12.115 47.994297 11.980313 47.989063 11.851562 48.007812 z"/>
</svg>
